<svg width="135" height="48" viewBox="0 0 135 48" fill="none" xmlns="http://www.w3.org/2000/svg">
<path fill-rule="evenodd" clip-rule="evenodd" d="M87.7945 17.1333C88.6282 17.1333 89.3051 17.8112 89.3051 18.6462C89.3051 19.4813 88.6282 20.1593 87.7945 20.1593C86.9606 20.1593 86.2837 19.4813 86.2837 18.6462C86.2837 17.8112 86.9606 17.1333 87.7945 17.1333ZM111.426 10.0059V15.3502C111.426 18.0044 109.275 20.1593 106.624 20.1593C103.974 20.1593 101.822 18.0044 101.822 15.3502V10.0059H104.412V15.3545C104.412 16.5772 105.403 17.5699 106.624 17.5699C107.845 17.5699 108.836 16.5772 108.836 15.3545V10.0059H111.426ZM94.0808 19.8714H91.6791V10.0051H96.4316C98.5722 10.0051 100.31 11.7457 100.31 13.8893C100.31 15.155 99.7042 16.2801 98.7675 16.9894L100.31 19.8714H97.6181L96.4948 17.7729C96.4739 17.7734 96.4528 17.7735 96.4316 17.7735H94.0808V19.8714ZM51.3498 19.7632H48.8396V9.89697H51.4071L54.5791 15.4399L57.7511 9.89697H60.3186V19.7632H57.8178V14.4776L55.2816 19.0124H53.8767L51.3498 14.4946V19.7632ZM79.7298 17.5293H84.1087V19.7632H77.2195V9.89697H79.7298V17.5293ZM75.3719 19.7632H72.8617V9.89697H75.3719V19.7632ZM72.1208 19.7632H69.3192L68.7512 18.3923H64.5109L63.9429 19.7632H61.1413L65.2303 9.89697H68.0317L72.1208 19.7632ZM65.3095 16.0569H67.9658L66.6376 12.8523L65.3095 16.0569ZM96.4209 12.5859H94.081V15.1923H96.4209C97.139 15.1923 97.7222 14.6084 97.7222 13.8892C97.7222 13.17 97.1392 12.5859 96.4209 12.5859Z" fill="white"/>
<path fill-rule="evenodd" clip-rule="evenodd" d="M87.8399 23.8743V29.2196C87.8399 31.8744 85.6879 34.0296 83.0371 34.0296C80.3864 34.0296 78.2342 31.8744 78.2342 29.2196V23.8743H80.8246V29.224C80.8246 30.447 81.816 31.4398 83.0371 31.4398C84.2583 31.4398 85.2497 30.447 85.2497 29.224V23.8743H87.8399ZM57.4821 25.5001C56.5257 24.3329 55.0743 23.5876 53.4505 23.5876C50.5733 23.5876 48.2375 25.9269 48.2375 28.8084C48.2375 31.6899 50.5733 34.0292 53.4505 34.0292C55.1021 34.0292 56.5756 33.2582 57.531 32.0561L55.7789 30.5222C55.2708 31.2139 54.4654 31.661 53.5597 31.661C52.0242 31.661 50.7776 30.3761 50.7776 28.7934C50.7776 27.2107 52.0242 25.9258 53.5597 25.9258C54.455 25.9258 55.2522 26.3627 55.7613 27.0408L57.4821 25.5001ZM71.555 23.5876C74.432 23.5876 76.768 25.9269 76.768 28.8084C76.768 31.6899 74.432 34.0292 71.555 34.0292C68.6779 34.0292 66.3421 31.6899 66.3421 28.8084C66.3421 25.9269 68.6779 23.5876 71.555 23.5876ZM61.4269 31.5081H65.8068V33.7425H59.348H58.9162V23.8743H61.4269V31.5081ZM94.483 33.7425H89.8067H89.5912V23.8743H94.483C97.2023 23.8743 99.4098 26.0852 99.4098 28.8084C99.4098 31.5315 97.2023 33.7425 94.483 33.7425ZM71.5552 26.1382C73.0266 26.1382 74.2214 27.3346 74.2214 28.8084C74.2214 30.2822 73.0266 31.4786 71.5552 31.4786C70.0836 31.4786 68.8888 30.2822 68.8888 28.8084C68.8888 27.3346 70.0836 26.1382 71.5552 26.1382ZM94.4803 26.4558H92.1007V31.2621H94.4803C95.7938 31.2621 96.8601 30.1942 96.8601 28.8789V28.839C96.8601 27.5237 95.7938 26.456 94.4803 26.4558Z" fill="white"/>
<path fill-rule="evenodd" clip-rule="evenodd" d="M48.2089 46.2452C49.2205 47.2128 50.6397 47.8479 52.6777 47.8479C55.3801 47.8479 56.8748 46.5022 56.8748 44.4762C56.8748 42.1929 54.58 41.7091 52.9193 41.3614C51.8022 41.1498 51.183 40.9684 51.183 40.439C51.183 40.0006 51.5152 39.6529 52.3758 39.6529C53.2665 39.6529 54.3687 40.0006 55.2141 40.6962L56.6332 38.8364C55.5613 37.914 54.1572 37.4302 52.5418 37.4302C49.9603 37.4302 48.5259 38.8969 48.5259 40.5903C48.5259 42.9792 50.851 43.4027 52.5117 43.7352C53.5836 43.962 54.2328 44.1888 54.2328 44.7633C54.2328 45.2473 53.6893 45.6252 52.7986 45.6252C51.4247 45.6252 50.3075 45.0205 49.5828 44.2947L48.2089 46.2452ZM87.46 37.7012V43.042C87.46 45.6946 85.3097 47.848 82.6611 47.848C80.0127 47.848 77.8624 45.6946 77.8624 43.042V37.7012H80.4505V43.0463C80.4505 44.2683 81.441 45.2604 82.6611 45.2604C83.8812 45.2604 84.8719 44.2683 84.8719 43.0463V37.7012H87.46ZM63.2996 37.415C66.1743 37.415 68.5081 39.7525 68.5081 42.6315C68.5081 45.5105 66.1743 47.8479 63.2996 47.8479C60.4249 47.8479 58.0909 45.5105 58.0909 42.6315C58.0909 39.7525 60.4249 37.415 63.2996 37.415ZM125.454 46.2452C126.465 47.2128 127.885 47.8478 129.923 47.8478C132.625 47.8478 134.12 46.5022 134.12 44.4761C134.12 42.1929 131.825 41.7091 130.164 41.3614C129.047 41.1498 128.428 40.9683 128.428 40.439C128.428 40.0006 128.76 39.6529 129.621 39.6529C130.512 39.6529 131.614 40.0006 132.459 40.6962L133.878 38.8364C132.806 37.914 131.402 37.4302 129.787 37.4302C127.205 37.4302 125.771 38.8969 125.771 40.5903C125.771 42.9792 128.096 43.4026 129.757 43.7352C130.829 43.962 131.478 44.1888 131.478 44.7633C131.478 45.2472 130.934 45.6251 130.044 45.6251C128.67 45.6251 127.552 45.0204 126.828 44.2947L125.454 46.2452ZM108.017 37.415C110.892 37.415 113.226 39.7525 113.226 42.6315C113.226 45.5105 110.892 47.8479 108.017 47.8479C105.142 47.8479 102.808 45.5105 102.808 42.6315C102.808 39.7525 105.142 37.415 108.017 37.415ZM72.709 45.329H77.0851V47.5615H70.6318H70.2004V37.7017H72.709V45.329ZM123.916 47.5615H121.407L117.196 41.8147V47.5615H114.687V37.7017H117.196L121.38 43.4085L121.407 43.4532V37.7017H123.916V47.5615ZM101.255 47.5615H98.7469V37.7017H101.255V47.5615ZM97.1294 39.9672H94.3578V47.561H91.8492V39.9672H89.0776V37.7012H97.1294V39.9672ZM63.2996 39.9634C64.7699 39.9634 65.9637 41.1589 65.9637 42.6314C65.9637 44.1039 64.7699 45.2993 63.2996 45.2993C61.8293 45.2993 60.6356 44.1039 60.6356 42.6314C60.6356 41.1589 61.8293 39.9634 63.2996 39.9634ZM108.017 39.9634C109.487 39.9634 110.681 41.1589 110.681 42.6314C110.681 44.1039 109.487 45.2993 108.017 45.2993C106.547 45.2993 105.353 44.1039 105.353 42.6314C105.353 41.1589 106.547 39.9634 108.017 39.9634Z" fill="white"/>
<path fill-rule="evenodd" clip-rule="evenodd" d="M0.250786 10.8611C0.455016 10.2168 0.890486 9.6439 1.52047 9.27969L16.9186 0.37627C18.2588 -0.398658 19.9748 0.0618783 20.7486 1.40406C21.5222 2.74608 21.0623 4.46468 19.7223 5.23961L8.52638 11.7133L19.7223 18.1869C21.0623 18.9618 21.5222 20.6804 20.7486 22.0226C19.9748 23.3646 18.2588 23.8252 16.9186 23.0502L5.72579 16.5785V29.522C5.72579 31.0717 4.46962 32.3299 2.92224 32.3299C1.37487 32.3299 0.11853 31.0717 0.11853 29.522V11.7152V11.7119C0.11853 11.5022 0.141918 11.2914 0.190011 11.0834L0.19034 11.0813L0.190505 11.0809L0.19067 11.0803L0.191493 11.0765C0.208457 11.0036 0.228386 10.9317 0.250786 10.8611Z" fill="#FFCD44"/>
<path fill-rule="evenodd" clip-rule="evenodd" d="M28.1131 11.7133L16.9171 5.23961C15.577 4.46468 15.1173 2.74608 15.8909 1.40406C16.6647 0.0618783 18.3807 -0.398658 19.7207 0.37627L35.119 9.27969C35.749 9.6439 36.1843 10.2168 36.3885 10.8611C36.4111 10.9317 36.431 11.0036 36.448 11.0765L36.4489 11.0813L36.4494 11.0834C36.4974 11.2914 36.5209 11.5022 36.5209 11.7119V11.7152V29.522C36.5209 31.0717 35.2646 32.3299 33.7172 32.3299C32.1698 32.3299 30.9135 31.0717 30.9135 29.522V16.5785L19.7207 23.0502C18.3807 23.8252 16.6647 23.3646 15.8909 22.0226C15.1173 20.6804 15.577 18.9618 16.9171 18.1869L28.1131 11.7133Z" fill="#27BEFF"/>
<path fill-rule="evenodd" clip-rule="evenodd" d="M18.3197 0C18.6951 0.000329897 19.0665 0.0762062 19.4107 0.221526C19.5158 0.266062 19.6194 0.317691 19.7207 0.376247L19.783 0.412206C20.1703 0.648742 20.5058 0.982928 20.7486 1.40404C21.5222 2.74606 21.0624 4.46466 19.7223 5.23959L18.3197 6.05064L16.9171 5.23959C15.577 4.46466 15.1173 2.74606 15.8909 1.40404C16.1337 0.982928 16.469 0.648742 16.8565 0.412206L16.9186 0.376247C17.0201 0.317691 17.1235 0.266062 17.2288 0.221526C17.573 0.0762062 17.9444 0.000329897 18.3197 0V0Z" fill="#007C65"/>
<path fill-rule="evenodd" clip-rule="evenodd" d="M21.1151 33.5631L32.311 27.0893C33.6511 26.3146 35.3672 26.775 36.1409 28.1171C36.9145 29.4592 36.4547 31.1779 35.1147 31.9527L19.7164 40.8561C19.0866 41.2205 18.3734 41.3117 17.7143 41.1667C17.642 41.1509 17.5699 41.1322 17.4982 41.1103L17.4936 41.109L17.4915 41.1083C17.2877 41.046 17.0935 40.9609 16.9124 40.8559L16.9096 40.8543L1.51146 31.9509C0.171283 31.1761 -0.288564 29.4573 0.485204 28.1153C1.25881 26.7731 2.975 26.3128 4.31501 27.0875L15.5078 33.5593V20.6156C15.5078 19.0659 16.764 17.8079 18.3113 17.8079C19.8587 17.8079 21.1151 19.0659 21.1151 20.6156V33.5631Z" fill="#AC5ED1"/>
<path fill-rule="evenodd" clip-rule="evenodd" d="M0.11853 29.2907C0.150812 28.8887 0.27055 28.4875 0.485156 28.1154C1.25876 26.7732 2.97495 26.3129 4.31496 27.0876L5.72579 27.9035V29.5221C5.72579 31.0718 4.46962 32.33 2.92224 32.33C1.37487 32.33 0.11853 31.0718 0.11853 29.5221L0.11853 29.2907Z" fill="#9F008C"/>
<path fill-rule="evenodd" clip-rule="evenodd" d="M30.9136 27.8974L32.3111 27.0893C33.6512 26.3146 35.3673 26.7749 36.141 28.1171C36.9146 29.4591 36.4548 31.1779 35.1148 31.9527L35.0006 32.0187C34.6161 32.2176 34.1796 32.3299 33.7173 32.3299C32.1699 32.3299 30.9136 31.0717 30.9136 29.522V27.8974Z" fill="#5F1DC0"/>
<path fill-rule="evenodd" clip-rule="evenodd" d="M17.0789 18.0931L18.3196 17.3757L19.7222 18.1868C20.691 18.7469 21.1998 19.8005 21.115 20.8484V22.244L19.7833 23.0138C19.6629 23.0874 19.5374 23.1516 19.4082 23.206C19.0559 23.3551 18.6859 23.4267 18.3196 23.4264C17.9533 23.4267 17.5834 23.3553 17.2311 23.206C17.1018 23.1516 16.9763 23.0874 16.8558 23.0138L15.5077 22.2343V20.6155C15.5077 19.5085 16.1487 18.5503 17.0789 18.0931Z" fill="#2B0067"/>
</svg>
